<mxfile host="Electron" modified="2024-08-25T11:54:48.088Z" agent="Mozilla/5.0 (Macintosh; Intel Mac OS X 10_15_7) AppleWebKit/537.36 (KHTML, like Gecko) draw.io/21.5.1 Chrome/112.0.5615.204 Electron/24.6.0 Safari/537.36" etag="GfPaAOcI_GjgwGyv2j7P" version="21.5.1" type="device">
  <diagram name="Page-1" id="0sN95YTtTyGnY8dnCMyz">
    <mxGraphModel dx="1853" dy="689" grid="1" gridSize="10" guides="1" tooltips="1" connect="1" arrows="1" fold="1" page="1" pageScale="1" pageWidth="827" pageHeight="1169" math="0" shadow="0">
      <root>
        <mxCell id="0" />
        <mxCell id="1" parent="0" />
        <mxCell id="9KkecRFtXoYoM6APzsFI-1" value="Core&lt;br&gt;- Virtual Network&lt;br&gt;- Overall identities and access including DevOps service principal" style="rounded=0;whiteSpace=wrap;html=1;verticalAlign=top;align=left;" parent="1" vertex="1">
          <mxGeometry x="210" y="210" width="580" height="390" as="geometry" />
        </mxCell>
        <mxCell id="9KkecRFtXoYoM6APzsFI-6" style="edgeStyle=orthogonalEdgeStyle;rounded=0;orthogonalLoop=1;jettySize=auto;html=1;entryX=-0.002;entryY=0.408;entryDx=0;entryDy=0;entryPerimeter=0;" parent="1" source="9KkecRFtXoYoM6APzsFI-2" edge="1" target="9KkecRFtXoYoM6APzsFI-1">
          <mxGeometry relative="1" as="geometry">
            <mxPoint x="200" y="370" as="targetPoint" />
          </mxGeometry>
        </mxCell>
        <mxCell id="9KkecRFtXoYoM6APzsFI-7" value="deploy_infrastructure_core.sh" style="edgeLabel;html=1;align=center;verticalAlign=middle;resizable=0;points=[];" parent="9KkecRFtXoYoM6APzsFI-6" vertex="1" connectable="0">
          <mxGeometry x="-0.2727" y="1" relative="1" as="geometry">
            <mxPoint x="18" y="-9" as="offset" />
          </mxGeometry>
        </mxCell>
        <mxCell id="9KkecRFtXoYoM6APzsFI-8" style="edgeStyle=orthogonalEdgeStyle;rounded=0;orthogonalLoop=1;jettySize=auto;html=1;exitX=1;exitY=0.5;exitDx=0;exitDy=0;entryX=0;entryY=0.5;entryDx=0;entryDy=0;" parent="1" source="9KkecRFtXoYoM6APzsFI-2" target="9KkecRFtXoYoM6APzsFI-5" edge="1">
          <mxGeometry relative="1" as="geometry">
            <mxPoint x="10" y="540" as="targetPoint" />
          </mxGeometry>
        </mxCell>
        <mxCell id="9KkecRFtXoYoM6APzsFI-9" value="Core state is put here&lt;br&gt;Storage is made private after deployment" style="edgeLabel;html=1;align=center;verticalAlign=middle;resizable=0;points=[];" parent="9KkecRFtXoYoM6APzsFI-8" vertex="1" connectable="0">
          <mxGeometry x="0.1543" y="2" relative="1" as="geometry">
            <mxPoint x="20" y="-18" as="offset" />
          </mxGeometry>
        </mxCell>
        <mxCell id="9KkecRFtXoYoM6APzsFI-2" value="Subscription Owner&#39;s machine" style="rounded=0;whiteSpace=wrap;html=1;" parent="1" vertex="1">
          <mxGeometry x="-100" y="340" width="120" height="60" as="geometry" />
        </mxCell>
        <mxCell id="9KkecRFtXoYoM6APzsFI-10" style="edgeStyle=orthogonalEdgeStyle;rounded=0;orthogonalLoop=1;jettySize=auto;html=1;entryX=0;entryY=0.5;entryDx=0;entryDy=0;" parent="1" source="9KkecRFtXoYoM6APzsFI-3" target="9KkecRFtXoYoM6APzsFI-4" edge="1">
          <mxGeometry relative="1" as="geometry" />
        </mxCell>
        <mxCell id="9KkecRFtXoYoM6APzsFI-12" value="deploy_infrastructure_platform.sh" style="edgeLabel;html=1;align=center;verticalAlign=middle;resizable=0;points=[];" parent="9KkecRFtXoYoM6APzsFI-10" vertex="1" connectable="0">
          <mxGeometry x="-0.6714" y="1" relative="1" as="geometry">
            <mxPoint x="59" y="-9" as="offset" />
          </mxGeometry>
        </mxCell>
        <mxCell id="9KkecRFtXoYoM6APzsFI-11" style="edgeStyle=orthogonalEdgeStyle;rounded=0;orthogonalLoop=1;jettySize=auto;html=1;entryX=1;entryY=0.5;entryDx=0;entryDy=0;exitX=0.5;exitY=1;exitDx=0;exitDy=0;" parent="1" source="9KkecRFtXoYoM6APzsFI-3" target="9KkecRFtXoYoM6APzsFI-5" edge="1">
          <mxGeometry relative="1" as="geometry" />
        </mxCell>
        <mxCell id="9KkecRFtXoYoM6APzsFI-13" value="Platform state" style="edgeLabel;html=1;align=center;verticalAlign=middle;resizable=0;points=[];" parent="9KkecRFtXoYoM6APzsFI-11" vertex="1" connectable="0">
          <mxGeometry x="-0.375" y="-1" relative="1" as="geometry">
            <mxPoint as="offset" />
          </mxGeometry>
        </mxCell>
        <mxCell id="9KkecRFtXoYoM6APzsFI-3" value="DevOps VM" style="rounded=0;whiteSpace=wrap;html=1;" parent="1" vertex="1">
          <mxGeometry x="220" y="340" width="120" height="60" as="geometry" />
        </mxCell>
        <mxCell id="9KkecRFtXoYoM6APzsFI-4" value="Platform&lt;br&gt;- Application specific infrastructure" style="rounded=0;whiteSpace=wrap;html=1;verticalAlign=top;align=left;" parent="1" vertex="1">
          <mxGeometry x="530" y="280" width="240" height="180" as="geometry" />
        </mxCell>
        <mxCell id="9KkecRFtXoYoM6APzsFI-5" value="Storage Account&lt;br&gt;Terraform state" style="rounded=0;whiteSpace=wrap;html=1;" parent="1" vertex="1">
          <mxGeometry x="60" y="510" width="120" height="60" as="geometry" />
        </mxCell>
      </root>
    </mxGraphModel>
  </diagram>
</mxfile>
